<?xml version="1.0" standalone="no"?>
<!DOCTYPE svg PUBLIC "-//W3C//DTD SVG 20010904//EN"
 "http://www.w3.org/TR/2001/REC-SVG-20010904/DTD/svg10.dtd">
<svg version="1.0" xmlns="http://www.w3.org/2000/svg"
 width="900.000000pt" height="555.000000pt" viewBox="0 0 900.000000 555.000000"
 preserveAspectRatio="xMidYMid meet">

<g transform="translate(0.000000,555.000000) scale(0.100000,-0.100000)"
fill="#7a0606" stroke="none">
<path d="M4435 4159 c-269 -23 -632 -91 -1240 -232 -798 -186 -1125 -242
-1527 -263 l-128 -7 0 -1158 0 -1159 2958 2 2957 3 3 1158 2 1157 -529 0 -529
0 -20 -57 c-11 -32 -23 -66 -27 -75 -7 -17 19 -18 449 -18 l456 0 0 -905 0
-905 -2764 0 -2763 0 -1 873 c-1 479 1 887 4 905 l6 32 72 0 c170 0 487 51
1161 184 542 108 804 156 1015 185 312 43 599 58 785 42 354 -32 563 -138 661
-335 l37 -76 157 0 157 0 7 53 c3 28 9 62 12 75 6 22 5 22 -79 22 l-86 0 -35
63 c-194 346 -573 487 -1171 436z"/>
<path d="M6220 3998 c0 -5 -41 -123 -59 -172 -10 -25 -13 -27 -29 -15 -15 13
-16 12 -4 -3 9 -11 11 -28 7 -48 l-7 -32 -33 36 c-32 36 -76 48 -90 26 -3 -5
-11 -10 -17 -10 -6 0 -9 34 -6 96 2 81 1 91 -9 67 -18 -42 -16 -196 2 -241 21
-49 53 -82 82 -82 25 0 29 -11 12 -42 -10 -19 -12 -19 -30 11 -25 42 -64 57
-95 36 -22 -14 -24 -14 -30 11 -4 14 -4 58 -1 98 4 53 3 66 -5 52 -6 -10 -13
-55 -15 -101 -9 -128 30 -218 98 -232 16 -3 29 -7 29 -8 0 -1 -5 -17 -11 -34
l-12 -33 -21 39 c-29 51 -68 70 -101 49 -24 -16 -25 -15 -31 10 -4 14 -4 61
-1 103 4 56 3 70 -5 51 -16 -41 -21 -181 -8 -229 16 -59 71 -115 105 -109 14
3 25 1 25 -4 0 -10 -37 -114 -209 -586 -61 -167 -111 -310 -111 -318 0 -25 45
-15 107 25 33 21 64 44 68 51 13 21 -5 24 -34 7 -37 -22 -51 -22 -51 0 0 15
258 802 265 811 2 2 13 -6 24 -17 45 -45 128 -16 205 70 42 47 86 116 86 135
0 4 -14 -13 -31 -37 -60 -84 -99 -117 -99 -85 0 46 -72 60 -128 26 l-34 -21 8
23 c20 67 23 70 40 54 19 -20 86 -21 122 -2 56 30 187 194 169 212 -2 3 -13
-10 -24 -28 -25 -42 -82 -108 -94 -108 -5 0 -9 6 -9 14 0 20 -39 46 -68 46
-13 0 -36 -7 -52 -15 -34 -18 -34 -18 -19 23 10 29 11 30 37 16 55 -29 151 20
218 113 35 47 70 113 61 113 -2 0 -20 -24 -40 -53 -21 -30 -48 -64 -61 -76
l-24 -22 -5 24 c-10 36 -49 53 -94 39 -20 -6 -39 -9 -41 -7 -3 2 7 39 22 82
32 93 35 102 36 108 0 3 7 23 16 46 8 23 12 44 9 47 -3 3 -5 3 -5 0z m-160
-248 c40 -40 49 -100 16 -100 -20 0 -65 49 -72 77 -12 44 21 58 56 23z m195
-85 c0 -36 -112 -74 -130 -45 -21 34 31 71 95 67 28 -2 35 -6 35 -22z m-256
-90 c31 -35 41 -78 21 -90 -32 -19 -104 82 -80 111 18 20 24 18 59 -21z m206
-65 c12 -19 -16 -50 -56 -60 -44 -12 -79 -6 -79 14 0 14 27 40 50 49 25 9 78
8 85 -3z m-272 -92 c30 -41 38 -63 31 -83 -19 -49 -115 44 -99 95 10 30 41 24
68 -12z m211 -64 c31 -12 18 -44 -26 -64 -52 -24 -72 -25 -88 -5 -17 20 10 51
54 64 40 12 42 12 60 5z"/>
<path d="M3090 3534 c-158 -28 -290 -102 -412 -233 -92 -99 -161 -212 -206
-343 -34 -97 -36 -110 -37 -233 0 -123 2 -134 29 -192 34 -75 102 -142 169
-168 36 -13 65 -17 125 -13 147 8 276 96 372 251 53 86 65 137 31 137 -12 0
-31 -22 -57 -65 -46 -80 -99 -133 -167 -171 -97 -54 -224 -33 -291 47 -113
134 -114 346 -1 576 56 113 146 210 245 262 55 30 78 36 147 39 74 4 88 2 138
-22 90 -45 152 -133 191 -276 24 -89 24 -312 0 -430 -69 -327 -315 -620 -577
-684 -103 -25 -167 -21 -285 20 -57 19 -114 34 -126 32 -13 -2 -29 -15 -36
-31 -12 -24 -11 -31 2 -52 49 -75 238 -94 434 -44 401 102 743 545 769 994 16
286 -94 515 -278 580 -47 17 -138 26 -179 19z"/>
<path d="M4767 3379 c-191 -22 -342 -111 -408 -242 -45 -87 -20 -193 57 -246
55 -38 165 -61 208 -45 27 10 18 24 -16 24 -115 2 -196 88 -185 197 16 155
168 269 373 281 102 5 170 -7 252 -45 79 -37 80 -42 29 -196 -65 -192 -178
-472 -254 -626 -55 -113 -76 -145 -132 -201 -150 -149 -322 -176 -382 -58 -39
76 -17 188 60 304 117 176 286 278 486 293 65 5 80 9 83 24 3 14 -4 17 -49 17
-140 0 -338 -86 -461 -200 -139 -128 -227 -296 -216 -411 20 -202 307 -196
518 12 126 125 212 285 374 699 117 297 119 307 77 343 -70 58 -262 94 -414
76z"/>
<path d="M3971 3276 c-17 -9 -20 -15 -10 -18 12 -4 11 -14 -5 -59 -38 -107
-32 -99 -65 -86 -26 9 -34 7 -69 -15 -40 -27 -82 -96 -82 -135 0 -23 24 -53
43 -53 7 0 27 9 45 20 32 20 32 20 32 0 0 -25 9 -25 40 1 16 14 19 19 8 15
-10 -3 -18 -2 -18 2 0 4 27 81 60 171 33 90 60 165 60 167 0 7 -15 3 -39 -10z
m-83 -188 c17 -17 15 -35 -9 -85 -24 -50 -72 -82 -95 -62 -20 16 -18 53 6 99
28 55 70 76 98 48z"/>
<path d="M6162 3117 c-32 -22 -40 -41 -22 -52 16 -10 11 -40 -11 -69 -25 -31
-9 -34 32 -5 51 36 76 112 46 137 -10 9 -21 6 -45 -11z"/>
<path d="M4044 3104 c-18 -15 -18 -15 3 -5 12 6 29 8 37 5 20 -8 21 -57 1 -74
-8 -7 -15 -17 -15 -22 0 -16 30 12 44 41 28 55 -22 94 -70 55z"/>
<path d="M3985 3053 c-24 -37 -33 -95 -17 -119 19 -30 105 -19 127 16 4 7 -5
5 -23 -4 -39 -20 -56 -20 -73 0 -10 13 -10 17 2 25 11 7 11 9 -3 9 -23 0 -23
22 2 70 26 50 18 51 -15 3z"/>
<path d="M6403 2885 c-68 -34 -137 -110 -176 -193 -26 -55 -31 -80 -32 -138 0
-61 4 -76 28 -111 74 -107 218 -92 343 35 30 31 67 81 82 111 23 48 27 69 27
141 0 69 -4 90 -19 111 -38 49 -67 63 -136 67 -54 3 -73 -1 -117 -23z m160
-43 c58 -55 59 -161 3 -279 -58 -120 -144 -174 -221 -138 -118 57 -90 307 48
415 55 44 124 44 170 2z"/>
<path d="M5254 2875 c-62 -32 -101 -62 -92 -71 4 -4 21 -1 38 6 17 7 33 10 37
7 3 -4 -24 -85 -61 -181 -36 -97 -66 -188 -66 -204 0 -69 66 -72 192 -10 61
31 87 39 84 29 -19 -63 -19 -71 3 -71 28 0 105 37 127 61 19 21 11 40 -8 21
-11 -11 -48 -17 -48 -9 0 4 69 206 120 351 17 49 29 91 26 93 -2 3 -17 -1 -32
-9 -23 -11 -36 -36 -84 -163 -69 -182 -81 -208 -119 -235 -56 -39 -140 -72
-168 -65 -23 5 -25 9 -19 43 3 20 40 122 81 225 42 103 73 192 70 198 -10 14
-27 11 -81 -16z"/>
<path d="M6042 2860 c-34 -22 -62 -44 -62 -50 0 -13 16 -13 41 0 31 17 25 -10
-46 -221 -36 -107 -63 -200 -60 -207 7 -18 45 -9 102 25 52 30 60 58 12 41
-16 -6 -33 -8 -36 -4 -3 3 28 100 70 215 43 115 77 216 77 225 0 26 -33 18
-98 -24z"/>
<path d="M3468 2062 c-39 -23 -62 -76 -55 -125 10 -75 91 -126 153 -95 44 21
43 41 -2 22 -85 -36 -154 50 -115 144 19 45 78 65 122 42 15 -8 19 -7 19 3 0
30 -81 35 -122 9z"/>
<path d="M4075 2068 c-27 -15 -35 -28 -35 -60 0 -17 -6 -28 -17 -31 -17 -4
-17 -5 0 -6 14 -1 17 -11 17 -66 0 -37 4 -65 10 -65 6 0 10 27 10 60 0 53 3
62 22 69 l22 8 -22 5 c-30 8 -28 43 3 73 26 27 22 31 -10 13z"/>
<path d="M4646 2045 c-10 -14 -16 -29 -13 -31 7 -8 39 35 35 47 -2 7 -12 0
-22 -16z"/>
<path d="M5230 1955 c0 -70 4 -115 10 -115 9 0 15 44 11 78 -1 6 9 12 22 12
89 0 137 68 84 118 -18 17 -36 22 -75 22 l-52 0 0 -115z m108 82 c7 -6 12 -24
10 -41 -2 -25 -9 -32 -35 -39 -49 -14 -63 -4 -63 46 0 24 3 47 7 51 9 8 64 -3
81 -17z"/>
<path d="M6098 2058 c0 -7 -1 -26 -2 -43 -1 -27 -4 -30 -29 -27 -60 7 -105
-51 -85 -108 13 -38 41 -50 97 -43 l41 6 0 113 c0 69 -4 114 -10 114 -5 0 -11
-6 -12 -12z m-10 -142 c3 -50 -6 -66 -40 -66 -43 0 -65 72 -32 105 9 9 28 15
43 13 24 -3 26 -7 29 -52z"/>
<path d="M6498 2053 c-29 -34 -30 -48 -2 -21 15 15 26 30 23 33 -3 3 -13 -3
-21 -12z"/>
<path d="M4145 2050 c-4 -6 -3 -16 3 -22 6 -6 12 -6 17 2 4 6 3 16 -3 22 -6 6
-12 6 -17 -2z"/>
<path d="M4230 2006 c0 -15 -7 -26 -17 -29 -17 -4 -17 -5 0 -6 16 -1 22 -27
19 -81 -1 -17 16 -50 26 -50 4 0 6 29 4 64 -3 61 -2 65 20 69 23 4 23 4 1 6
-17 1 -23 7 -23 26 0 16 -6 25 -15 25 -9 0 -15 -9 -15 -24z"/>
<path d="M3662 1967 c-27 -29 -29 -87 -4 -110 9 -8 29 -19 44 -22 22 -6 33 -1
58 23 37 37 39 74 5 107 -31 32 -74 33 -103 2z m86 -9 c16 -16 16 -80 0 -96
-17 -17 -54 -15 -72 4 -18 18 -21 56 -6 85 12 22 59 26 78 7z"/>
<path d="M3888 1974 c-16 -8 -28 -10 -28 -4 0 5 -4 10 -10 10 -6 0 -10 -30
-10 -70 0 -40 4 -70 10 -70 6 0 10 20 10 45 0 52 28 88 63 83 20 -3 22 -10 25
-65 3 -67 16 -83 27 -34 9 42 -4 100 -26 111 -23 13 -28 12 -61 -6z"/>
<path d="M4147 1984 c-4 -4 -7 -38 -7 -76 0 -51 3 -69 13 -66 7 3 13 28 15 68
3 59 -6 89 -21 74z"/>
<path d="M4352 1967 c-59 -62 6 -160 82 -126 34 16 34 32 0 19 -35 -14 -50
-12 -68 6 -32 32 -20 44 44 44 53 0 60 2 60 20 0 54 -79 79 -118 37z m90 -11
c18 -27 7 -36 -43 -36 -42 0 -50 3 -47 17 7 36 70 49 90 19z"/>
<path d="M4570 1980 c-8 -5 -23 -7 -32 -4 -16 5 -18 -3 -18 -65 0 -82 17 -97
22 -19 3 46 6 54 31 66 15 7 27 17 27 23 0 12 -11 11 -30 -1z"/>
<path d="M4636 1982 c-10 -17 -1 -135 12 -140 9 -3 12 16 12 72 0 67 -9 92
-24 68z"/>
<path d="M4736 1969 c-23 -18 -27 -28 -24 -62 4 -55 37 -79 96 -70 l42 6 0 67
0 68 -31 6 c-47 9 -54 8 -83 -15z m92 -56 c3 -50 3 -51 -29 -58 -27 -6 -36 -3
-51 15 -36 44 -9 103 45 98 31 -3 32 -5 35 -55z"/>
<path d="M5433 1978 c-49 -23 -48 -113 1 -136 13 -6 42 -8 65 -5 l41 6 0 67 0
68 -31 6 c-40 8 -49 7 -76 -6z m85 -56 c4 -51 -10 -72 -47 -72 -35 0 -51 17
-51 53 0 50 17 69 58 65 36 -3 37 -4 40 -46z"/>
<path d="M5648 1974 c-16 -8 -28 -10 -28 -4 0 5 -4 10 -10 10 -6 0 -10 -30
-10 -70 0 -40 4 -70 10 -70 6 0 10 20 10 45 0 52 28 88 63 83 20 -3 22 -10 25
-66 2 -44 7 -62 15 -59 8 2 12 25 11 62 -1 44 -5 61 -19 71 -23 17 -33 17 -67
-2z"/>
<path d="M5823 1980 c-44 -18 -57 -81 -25 -120 15 -18 29 -23 72 -23 l53 -1
-2 70 c-1 38 -3 70 -4 71 -9 8 -77 10 -94 3z m75 -67 c-3 -57 -4 -58 -35 -61
-23 -2 -35 3 -47 20 -33 46 -6 98 50 98 l35 0 -3 -57z"/>
<path d="M6195 1965 c-61 -60 -1 -156 79 -126 14 6 26 15 26 20 0 5 -12 5 -29
-2 -23 -9 -34 -7 -55 6 -46 30 -34 47 34 47 53 0 60 2 60 20 0 28 -35 60 -65
60 -14 0 -37 -11 -50 -25z m83 -7 c20 -20 14 -25 -34 -33 -53 -8 -60 -4 -44
24 12 24 58 29 78 9z"/>
<path d="M6410 1980 c-8 -5 -23 -7 -32 -4 -16 5 -18 -3 -18 -65 0 -41 4 -71
10 -71 6 0 10 18 10 41 0 50 15 79 40 79 11 0 20 7 20 15 0 17 -9 19 -30 5z"/>
<path d="M6480 1915 c0 -43 4 -75 10 -75 6 0 10 32 10 75 0 43 -4 75 -10 75
-6 0 -10 -32 -10 -75z"/>
<path d="M6575 1965 c-40 -39 -29 -106 20 -125 13 -5 40 -6 59 -3 l36 6 0 67
0 68 -31 6 c-49 10 -58 8 -84 -19z m93 -52 c3 -50 2 -53 -24 -59 -54 -14 -91
43 -60 91 14 21 24 26 49 23 31 -3 32 -5 35 -55z"/>
<path d="M5000 1910 c0 -5 18 -10 40 -10 22 0 40 5 40 10 0 6 -18 10 -40 10
-22 0 -40 -4 -40 -10z"/>
</g>
</svg>
